<svg width="28" height="29" viewBox="0 0 28 29" fill="none" xmlns="http://www.w3.org/2000/svg">
<path d="M26 8.28571V26.9286H8V8.28571H26ZM26 6.21428H8C7.46957 6.21428 6.96086 6.43252 6.58579 6.82099C6.21071 7.20946 6 7.73633 6 8.28571V26.9286C6 27.4779 6.21071 28.0048 6.58579 28.3933C6.96086 28.7818 7.46957 29 8 29H26C26.5304 29 27.0391 28.7818 27.4142 28.3933C27.7893 28.0048 28 27.4779 28 26.9286V8.28571C28 7.73633 27.7893 7.20946 27.4142 6.82099C27.0391 6.43252 26.5304 6.21428 26 6.21428Z" fill="black"/>
<path d="M2 16.5714H0V2.07143C0 1.52205 0.210714 0.995175 0.585786 0.606707C0.960859 0.218239 1.46957 0 2 0H16V2.07143H2V16.5714Z" fill="black"/>
</svg>
