<svg width="400" height="400" viewBox="0 0 200 200" fill="none" xmlns="http://www.w3.org/2000/svg">
<path fill-rule="evenodd" clip-rule="evenodd" d="M138.917 109.417C150.333 117.167 158.333 127.667 158.333 141.667V166.667H191.667V141.667C191.667 123.5 161.917 112.75 138.917 109.417Z" fill="white"/>
<path d="M75 100C93.4095 100 108.333 85.0762 108.333 66.6667C108.333 48.2572 93.4095 33.3333 75 33.3333C56.5905 33.3333 41.6666 48.2572 41.6666 66.6667C41.6666 85.0762 56.5905 100 75 100Z" fill="white"/>
<path fill-rule="evenodd" clip-rule="evenodd" d="M125 100C143.417 100 158.333 85.0833 158.333 66.6667C158.333 48.25 143.417 33.3333 125 33.3333C121.083 33.3333 117.417 34.1667 113.917 35.3333C121.088 44.2018 125 55.2617 125 66.6667C125 78.0716 121.088 89.1315 113.917 98C117.417 99.1667 121.083 100 125 100ZM75 108.333C52.75 108.333 8.33337 119.5 8.33337 141.667V166.667H141.667V141.667C141.667 119.5 97.25 108.333 75 108.333Z" fill="white"/>
</svg>
