<svg width="30" height="30" viewBox="0 0 20 22" fill="none" xmlns="http://www.w3.org/2000/svg">
<path d="M14.9469 19.6666V14.3326M16.5069 14.3326V12.9996M16.5069 20.9996V19.6666M14.9469 16.9996H18.0669M18.0669 16.9996C18.5849 16.9996 19.0039 17.4476 19.0039 17.9996V18.6666C19.0039 19.2186 18.5849 19.6666 18.0679 19.6666H14.0099M18.0669 16.9996C18.5839 16.9996 19.0039 16.5516 19.0039 15.9996V15.3326C19.0039 14.7806 18.5849 14.3326 18.0679 14.3326H14.0099M12.6979 3.18557C11.2979 2.31357 7.70293 0.641575 4.46494 1.06857C6.42394 2.43857 7.45394 3.17458 10.2339 5.68858M16.5689 7.11858C16.9409 7.73458 17.5639 8.92857 17.9989 10.1716M14.1049 9.62157C14.3469 9.89657 14.6409 10.3116 14.8519 10.5556M8.35693 9.41757L1.41694 16.4676C0.853935 17.0396 0.861935 17.9746 1.43594 18.5576C1.56874 18.6956 1.72776 18.8058 1.90368 18.8817C2.0796 18.9575 2.26888 18.9975 2.46044 18.9992C2.65201 19.001 2.84199 18.9645 3.01928 18.892C3.19658 18.8194 3.3576 18.7122 3.49294 18.5766L10.4329 11.5266M9.84793 7.22557L12.5919 10.0126C12.6634 10.0861 12.7489 10.1446 12.8433 10.1846C12.9378 10.2247 13.0392 10.2454 13.1418 10.2457C13.2444 10.246 13.3459 10.2258 13.4406 10.1862C13.5352 10.1467 13.621 10.0887 13.6929 10.0156L17.0929 6.56157C17.2386 6.41186 17.32 6.21109 17.3196 6.00217C17.3193 5.79325 17.2372 5.59277 17.0909 5.44357L14.3469 2.65557C14.2753 2.58197 14.1898 2.52342 14.0952 2.48339C14.0006 2.44335 13.899 2.42263 13.7964 2.42244C13.6937 2.42225 13.592 2.44261 13.4973 2.4823C13.4026 2.52199 13.3168 2.58023 13.2449 2.65357L9.84494 6.10658C9.69892 6.25633 9.61736 6.45732 9.61774 6.66648C9.61811 6.87564 9.70139 7.07634 9.84793 7.22557Z" stroke="white" stroke-width="1.5" stroke-linecap="round" stroke-linejoin="round"/>
</svg>
