<svg width="30" height="30" viewBox="0 0 18 18" fill="none" xmlns="http://www.w3.org/2000/svg">
<path d="M8.1 3.6H9.9V9H10.8V9.9H11.7V10.8H12.6V12.6H10.8V11.7H9.9V10.8H9V9.9H8.1V3.6ZM12.6 0V0.9H14.4V1.8H15.3V2.7H16.2V3.6H17.1V5.4H18V12.6H17.1V14.4H16.2V15.3H15.3V16.2H14.4V17.1H12.6V18H5.4V17.1H3.6V16.2H2.7V15.3H1.8V14.4H0.9V12.6H0V5.4H0.9V3.6H1.8V2.7H2.7V1.8H3.6V0.9H5.4V0H12.6ZM11.7 1.8H6.3V2.7H4.5V3.6H3.6V4.5H2.7V6.3H1.8V11.7H2.7V13.5H3.6V14.4H4.5V15.3H6.3V16.2H11.7V15.3H13.5V14.4H14.4V13.5H15.3V11.7H16.2V6.3H15.3V4.5H14.4V3.6H13.5V2.7H11.7V1.8Z" fill="white"/>
</svg>
