<svg width="20" height="20" viewBox="0 0 20 20" fill="none" xmlns="http://www.w3.org/2000/svg">
<path d="M4.44444 0H15.5556V1.11111H16.6667V2.22222H17.7778V3.33333H18.8889V4.44444H20V11.1111H18.8889V12.2222H17.7778V13.3333H16.6667V14.4444H15.5556V15.5556H14.4444V16.6667H13.3333V17.7778H12.2222V18.8889H11.1111V20H8.88889V18.8889H7.77778V17.7778H6.66667V16.6667H5.55556V15.5556H4.44444V14.4444H3.33333V13.3333H2.22222V12.2222H1.11111V11.1111H0V4.44444H1.11111V3.33333H2.22222V2.22222H3.33333V1.11111H4.44444V0ZM14.4444 3.33333V2.22222H13.3333V4.44444H14.4444V5.55556H16.6667V4.44444H15.5556V3.33333H14.4444ZM11.1111 4.44444V2.22222H8.88889V4.44444H7.77778V5.55556H12.2222V4.44444H11.1111ZM6.66667 4.44444V2.22222H5.55556V3.33333H4.44444V4.44444H3.33333V5.55556H5.55556V4.44444H6.66667ZM2.22222 10H3.33333V11.1111H4.44444V12.2222H5.55556V13.3333H6.66667V11.1111H5.55556V7.77778H2.22222V10ZM8.88889 11.1111V15.5556H11.1111V11.1111H12.2222V7.77778H7.77778V11.1111H8.88889ZM13.3333 11.1111V13.3333H14.4444V12.2222H15.5556V11.1111H16.6667V10H17.7778V7.77778H14.4444V11.1111H13.3333Z" fill="white"/>
</svg>
