<svg width="28" height="22" viewBox="0 0 28 22" fill="none" xmlns="http://www.w3.org/2000/svg">
<path d="M16.3621 0H10.9909V2.19845H9.20049V8.79381H10.9909V10.9923H16.3621V8.79381H10.9909V2.19845H16.3621V0ZM16.3621 2.19845H18.1524V8.79381H16.3621V2.19845ZM6.5149 15.3892H8.30529V19.7861H19.0476V21.9845H6.5149V15.3892ZM8.30529 15.3892H19.0476V13.1907H8.30529V15.3892ZM20.838 15.3892H19.0476V21.9845H20.838V15.3892ZM19.9428 0H23.5236V1.98452H19.9428V0ZM23.617 7.98453L19.9428 8.00003V10H23.6171L23.617 7.98453ZM23.5236 1.98452H25.314V5.49613V7.98453H23.617L23.5236 1.98452ZM27.9996 14H26.2092V19.7861H22.6284V21.9845H27.9996V18.6868V14ZM22.6284 12H26.2092V14H22.6284V12Z" fill="white"/>
<path d="M16.3621 0H10.9909V2.19845H9.20049V8.79381H10.9909V10.9923H16.3621V8.79381H10.9909V2.19845H16.3621V0ZM16.3621 2.19845H18.1524V8.79381H16.3621V2.19845ZM6.5149 15.3892H8.30529V19.7861H19.0476V21.9845H6.5149V15.3892ZM8.30529 15.3892H19.0476V13.1907H8.30529V15.3892ZM20.838 15.3892H19.0476V21.9845H20.838V15.3892ZM19.9428 0H23.5236V1.98452H19.9428V0ZM23.617 7.98453L19.9428 8.00003V10H23.6171L23.617 7.98453ZM23.5236 1.98452H25.314V5.49613V7.98453H23.617L23.5236 1.98452ZM27.9996 14H26.2092V19.7861H22.6284V21.9845H27.9996V18.6868V14ZM22.6284 12H26.2092V14H22.6284V12Z" fill="white"/>
<path d="M16.3621 0H10.9909V2.19845H9.20049V8.79381H10.9909V10.9923H16.3621V8.79381H10.9909V2.19845H16.3621V0ZM16.3621 2.19845H18.1524V8.79381H16.3621V2.19845ZM6.5149 15.3892H8.30529V19.7861H19.0476V21.9845H6.5149V15.3892ZM8.30529 15.3892H19.0476V13.1907H8.30529V15.3892ZM20.838 15.3892H19.0476V21.9845H20.838V15.3892ZM19.9428 0H23.5236V1.98452H19.9428V0ZM23.617 7.98453L19.9428 8.00003V10H23.6171L23.617 7.98453ZM23.5236 1.98452H25.314V5.49613V7.98453H23.617L23.5236 1.98452ZM27.9996 14H26.2092V19.7861H22.6284V21.9845H27.9996V18.6868V14ZM22.6284 12H26.2092V14H22.6284V12Z" fill="white"/>
<path d="M16.3621 0H10.9909V2.19845H9.20049V8.79381H10.9909V10.9923H16.3621V8.79381H10.9909V2.19845H16.3621V0ZM16.3621 2.19845H18.1524V8.79381H16.3621V2.19845ZM6.5149 15.3892H8.30529V19.7861H19.0476V21.9845H6.5149V15.3892ZM8.30529 15.3892H19.0476V13.1907H8.30529V15.3892ZM20.838 15.3892H19.0476V21.9845H20.838V15.3892ZM19.9428 0H23.5236V1.98452H19.9428V0ZM23.617 7.98453L19.9428 8.00003V10H23.6171L23.617 7.98453ZM23.5236 1.98452H25.314V5.49613V7.98453H23.617L23.5236 1.98452ZM27.9996 14H26.2092V19.7861H22.6284V21.9845H27.9996V18.6868V14ZM22.6284 12H26.2092V14H22.6284V12Z" fill="white"/>
<path d="M16.3621 0H10.9909V2.19845H9.20049V8.79381H10.9909V10.9923H16.3621V8.79381H10.9909V2.19845H16.3621V0ZM16.3621 2.19845H18.1524V8.79381H16.3621V2.19845ZM6.5149 15.3892H8.30529V19.7861H19.0476V21.9845H6.5149V15.3892ZM8.30529 15.3892H19.0476V13.1907H8.30529V15.3892ZM20.838 15.3892H19.0476V21.9845H20.838V15.3892ZM19.9428 0H23.5236V1.98452H19.9428V0ZM23.617 7.98453L19.9428 8.00003V10H23.6171L23.617 7.98453ZM23.5236 1.98452H25.314V5.49613V7.98453H23.617L23.5236 1.98452ZM27.9996 14H26.2092V19.7861H22.6284V21.9845H27.9996V18.6868V14ZM22.6284 12H26.2092V14H22.6284V12Z" fill="white"/>
<path d="M16.3621 0H10.9909V2.19845H9.20049V8.79381H10.9909V10.9923H16.3621V8.79381H10.9909V2.19845H16.3621V0ZM16.3621 2.19845H18.1524V8.79381H16.3621V2.19845ZM6.5149 15.3892H8.30529V19.7861H19.0476V21.9845H6.5149V15.3892ZM8.30529 15.3892H19.0476V13.1907H8.30529V15.3892ZM20.838 15.3892H19.0476V21.9845H20.838V15.3892ZM19.9428 0H23.5236V1.98452H19.9428V0ZM23.617 7.98453L19.9428 8.00003V10H23.6171L23.617 7.98453ZM23.5236 1.98452H25.314V5.49613V7.98453H23.617L23.5236 1.98452ZM27.9996 14H26.2092V19.7861H22.6284V21.9845H27.9996V18.6868V14ZM22.6284 12H26.2092V14H22.6284V12Z" fill="white"/>
<path d="M16.3621 0H10.9909V2.19845H9.20049V8.79381H10.9909V10.9923H16.3621V8.79381H10.9909V2.19845H16.3621V0ZM16.3621 2.19845H18.1524V8.79381H16.3621V2.19845ZM6.5149 15.3892H8.30529V19.7861H19.0476V21.9845H6.5149V15.3892ZM8.30529 15.3892H19.0476V13.1907H8.30529V15.3892ZM20.838 15.3892H19.0476V21.9845H20.838V15.3892ZM19.9428 0H23.5236V1.98452H19.9428V0ZM23.617 7.98453L19.9428 8.00003V10H23.6171L23.617 7.98453ZM23.5236 1.98452H25.314V5.49613V7.98453H23.617L23.5236 1.98452ZM27.9996 14H26.2092V19.7861H22.6284V21.9845H27.9996V18.6868V14ZM22.6284 12H26.2092V14H22.6284V12Z" fill="white"/>
<path d="M16.3621 0H10.9909V2.19845H9.20049V8.79381H10.9909V10.9923H16.3621V8.79381H10.9909V2.19845H16.3621V0ZM16.3621 2.19845H18.1524V8.79381H16.3621V2.19845ZM6.5149 15.3892H8.30529V19.7861H19.0476V21.9845H6.5149V15.3892ZM8.30529 15.3892H19.0476V13.1907H8.30529V15.3892ZM20.838 15.3892H19.0476V21.9845H20.838V15.3892ZM19.9428 0H23.5236V1.98452H19.9428V0ZM23.617 7.98453L19.9428 8.00003V10H23.6171L23.617 7.98453ZM23.5236 1.98452H25.314V5.49613V7.98453H23.617L23.5236 1.98452ZM27.9996 14H26.2092V19.7861H22.6284V21.9845H27.9996V18.6868V14ZM22.6284 12H26.2092V14H22.6284V12Z" fill="white"/>
<path d="M16.3621 0H10.9909V2.19845H9.20049V8.79381H10.9909V10.9923H16.3621V8.79381H10.9909V2.19845H16.3621V0ZM16.3621 2.19845H18.1524V8.79381H16.3621V2.19845ZM6.5149 15.3892H8.30529V19.7861H19.0476V21.9845H6.5149V15.3892ZM8.30529 15.3892H19.0476V13.1907H8.30529V15.3892ZM20.838 15.3892H19.0476V21.9845H20.838V15.3892ZM19.9428 0H23.5236V1.98452H19.9428V0ZM23.617 7.98453L19.9428 8.00003V10H23.6171L23.617 7.98453ZM23.5236 1.98452H25.314V5.49613V7.98453H23.617L23.5236 1.98452ZM27.9996 14H26.2092V19.7861H22.6284V21.9845H27.9996V18.6868V14ZM22.6284 12H26.2092V14H22.6284V12Z" fill="white"/>
<path d="M16.3621 0H10.9909V2.19845H9.20049V8.79381H10.9909V10.9923H16.3621V8.79381H10.9909V2.19845H16.3621V0ZM16.3621 2.19845H18.1524V8.79381H16.3621V2.19845ZM6.5149 15.3892H8.30529V19.7861H19.0476V21.9845H6.5149V15.3892ZM8.30529 15.3892H19.0476V13.1907H8.30529V15.3892ZM20.838 15.3892H19.0476V21.9845H20.838V15.3892ZM19.9428 0H23.5236V1.98452H19.9428V0ZM23.617 7.98453L19.9428 8.00003V10H23.6171L23.617 7.98453ZM23.5236 1.98452H25.314V5.49613V7.98453H23.617L23.5236 1.98452ZM27.9996 14H26.2092V19.7861H22.6284V21.9845H27.9996V18.6868V14ZM22.6284 12H26.2092V14H22.6284V12Z" fill="white"/>
<path d="M16.3621 0H10.9909V2.19845H9.20049V8.79381H10.9909V10.9923H16.3621V8.79381H10.9909V2.19845H16.3621V0ZM16.3621 2.19845H18.1524V8.79381H16.3621V2.19845ZM6.5149 15.3892H8.30529V19.7861H19.0476V21.9845H6.5149V15.3892ZM8.30529 15.3892H19.0476V13.1907H8.30529V15.3892ZM20.838 15.3892H19.0476V21.9845H20.838V15.3892ZM19.9428 0H23.5236V1.98452H19.9428V0ZM23.617 7.98453L19.9428 8.00003V10H23.6171L23.617 7.98453ZM23.5236 1.98452H25.314V5.49613V7.98453H23.617L23.5236 1.98452ZM27.9996 14H26.2092V19.7861H22.6284V21.9845H27.9996V18.6868V14ZM22.6284 12H26.2092V14H22.6284V12Z" fill="white"/>
<path d="M16.3621 0H10.9909V2.19845H9.20049V8.79381H10.9909V10.9923H16.3621V8.79381H10.9909V2.19845H16.3621V0ZM16.3621 2.19845H18.1524V8.79381H16.3621V2.19845ZM6.5149 15.3892H8.30529V19.7861H19.0476V21.9845H6.5149V15.3892ZM8.30529 15.3892H19.0476V13.1907H8.30529V15.3892ZM20.838 15.3892H19.0476V21.9845H20.838V15.3892ZM19.9428 0H23.5236V1.98452H19.9428V0ZM23.617 7.98453L19.9428 8.00003V10H23.6171L23.617 7.98453ZM23.5236 1.98452H25.314V5.49613V7.98453H23.617L23.5236 1.98452ZM27.9996 14H26.2092V19.7861H22.6284V21.9845H27.9996V18.6868V14ZM22.6284 12H26.2092V14H22.6284V12Z" fill="white"/>
<path d="M16.3621 0H10.9909V2.19845H9.20049V8.79381H10.9909V10.9923H16.3621V8.79381H10.9909V2.19845H16.3621V0ZM16.3621 2.19845H18.1524V8.79381H16.3621V2.19845ZM6.5149 15.3892H8.30529V19.7861H19.0476V21.9845H6.5149V15.3892ZM8.30529 15.3892H19.0476V13.1907H8.30529V15.3892ZM20.838 15.3892H19.0476V21.9845H20.838V15.3892ZM19.9428 0H23.5236V1.98452H19.9428V0ZM23.617 7.98453L19.9428 8.00003V10H23.6171L23.617 7.98453ZM23.5236 1.98452H25.314V5.49613V7.98453H23.617L23.5236 1.98452ZM27.9996 14H26.2092V19.7861H22.6284V21.9845H27.9996V18.6868V14ZM22.6284 12H26.2092V14H22.6284V12Z" fill="white"/>
<path d="M16.3621 0H10.9909V2.19845H9.20049V8.79381H10.9909V10.9923H16.3621V8.79381H10.9909V2.19845H16.3621V0ZM16.3621 2.19845H18.1524V8.79381H16.3621V2.19845ZM6.5149 15.3892H8.30529V19.7861H19.0476V21.9845H6.5149V15.3892ZM8.30529 15.3892H19.0476V13.1907H8.30529V15.3892ZM20.838 15.3892H19.0476V21.9845H20.838V15.3892ZM19.9428 0H23.5236V1.98452H19.9428V0ZM23.617 7.98453L19.9428 8.00003V10H23.6171L23.617 7.98453ZM23.5236 1.98452H25.314V5.49613V7.98453H23.617L23.5236 1.98452ZM27.9996 14H26.2092V19.7861H22.6284V21.9845H27.9996V18.6868V14ZM22.6284 12H26.2092V14H22.6284V12Z" fill="white"/>
<path d="M16.3621 0H10.9909V2.19845H9.20049V8.79381H10.9909V10.9923H16.3621V8.79381H10.9909V2.19845H16.3621V0ZM16.3621 2.19845H18.1524V8.79381H16.3621V2.19845ZM6.5149 15.3892H8.30529V19.7861H19.0476V21.9845H6.5149V15.3892ZM8.30529 15.3892H19.0476V13.1907H8.30529V15.3892ZM20.838 15.3892H19.0476V21.9845H20.838V15.3892ZM19.9428 0H23.5236V1.98452H19.9428V0ZM23.617 7.98453L19.9428 8.00003V10H23.6171L23.617 7.98453ZM23.5236 1.98452H25.314V5.49613V7.98453H23.617L23.5236 1.98452ZM27.9996 14H26.2092V19.7861H22.6284V21.9845H27.9996V18.6868V14ZM22.6284 12H26.2092V14H22.6284V12Z" fill="white"/>
<path d="M16.3621 0H10.9909V2.19845H9.20049V8.79381H10.9909V10.9923H16.3621V8.79381H10.9909V2.19845H16.3621V0ZM16.3621 2.19845H18.1524V8.79381H16.3621V2.19845ZM6.5149 15.3892H8.30529V19.7861H19.0476V21.9845H6.5149V15.3892ZM8.30529 15.3892H19.0476V13.1907H8.30529V15.3892ZM20.838 15.3892H19.0476V21.9845H20.838V15.3892ZM19.9428 0H23.5236V1.98452H19.9428V0ZM23.617 7.98453L19.9428 8.00003V10H23.6171L23.617 7.98453ZM23.5236 1.98452H25.314V5.49613V7.98453H23.617L23.5236 1.98452ZM27.9996 14H26.2092V19.7861H22.6284V21.9845H27.9996V18.6868V14ZM22.6284 12H26.2092V14H22.6284V12Z" fill="white"/>
<rect x="3.25745" width="3.90906" height="2" fill="white"/>
<rect y="20.4" width="6.4" height="1.62877" transform="rotate(-90 0 20.4)" fill="white"/>
<rect x="3.25745" y="8" width="3.5833" height="2" fill="white"/>
<rect x="1.62885" y="12" width="3.42043" height="2" fill="white"/>
<rect x="1.62885" y="8" width="6" height="1.62877" transform="rotate(-90 1.62885 8)" fill="white"/>
<rect y="20" width="5.21208" height="2" fill="white"/>
</svg>
