<svg width="20" height="20" viewBox="0 0 20 20" fill="none" xmlns="http://www.w3.org/2000/svg">
<path d="M16.2309 17.6155H14.8464V16.2309H13.4614V14.8459H12.0768V13.4613H10.6923V12.0768H9.30773V10.6923H7.92319V9.30773H6.53865V7.92319H5.15411V13.4613H3.76908V14.8459H2.38454V13.4613H1L1 6.53865H2.38454L2.38454 2.38454H6.53865V0.999995H13.4614V2.38454H14.8464V3.76908H13.4614V5.15362L7.92319 5.15362L7.92319 6.53865H9.30773V7.92319L10.6923 7.92319V9.30773H12.0768L12.0768 10.6923H13.4614V12.0768L14.8464 12.0768V13.4613H16.2309V14.8459H17.6155V16.2309H19V19H16.2309V17.6155Z" stroke="white" stroke-linecap="round" stroke-linejoin="round"/>
</svg>
